<svg width="662.8px" height="124.4px" xmlns="http://www.w3.org/2000/svg" viewBox="-81.37998046874998 12.780004882812499 662.7599609375 124.439990234375" style="background: none" preserveAspectRatio="xMidYMid"><defs><linearGradient id="editing-shiny-gradient" x1="0.04322727117869957" x2="0.9567727288213004" y1="0.2966316784620999" y2="0.7033683215379001" gradientUnits="objectBoundingBox"><stop offset="0" stop-color="#93dbe9"></stop><stop offset="0.5" stop-color="#b585c1"></stop><stop offset="1" stop-color="#3b4368"></stop></linearGradient><linearGradient id="editing-shiny-gradient2" x1="0" x2="0" y1="0" y2="1"><stop offset="0.2" stop-color="#ffffff" stop-opacity="0.8"></stop><stop offset="0.8" stop-color="#ffffff" stop-opacity="0"></stop></linearGradient><filter id="editing-shiny2" x="-100%" y="-100%" width="300%" height="300%"><feMorphology operator="erode" radius="2"></feMorphology></filter><filter id="editing-shiny" x="-100%" y="-100%" width="300%" height="300%"><feFlood flood-color="#fff" result="flood"></feFlood><feConvolveMatrix in="SourceGraphic" result="conv" order="8,8" divisor="1" kernelMatrix="0 0 0 0 0 0 0 0 0 0 0 1 1 0 0 0 0 0 0 1 1 0 0 0 0 0 1 0 0 1 0 0 0 0 1 0 0 1 0 0 0 1 0 0 0 0 1 0 0 1 1 0 0 1 1 0 0 0 0 1 1 0 0 0 "></feConvolveMatrix><feOffset dx="0" dy="4" in="conv" result="offset"></feOffset><feComposite operator="in" in="flood" in2="offset" result="comp"></feComposite><feGaussianBlur in="offset" stdDeviation="3" result="shadow"></feGaussianBlur><feColorMatrix in="shadow" type="matrix" values="0.7 0 0 0 0  0 0.7 0 0 0  0 0 0.7 0 0  0 0 0 0.3 0" result="dark-shadow"></feColorMatrix><feOffset dx="0" dy="4" in="dark-shadow" result="offset-shadow"></feOffset><feOffset dx="0" dy="2" in="conv" result="offset-2"></feOffset><feComposite operator="out" in="offset" in2="offset-2" result="edge-diff"></feComposite><feGaussianBlur in="edge-diff" stdDeviation="1" result="edge-blur"></feGaussianBlur><feColorMatrix in="edge-blur" result="edge-shadow" type="matrix" values="0 0 0 0 0  0 0 0 0 0  0 0 0 0 0  0 0 0 0.5 0"></feColorMatrix><feComposite operator="in" in="edge-shadow" in2="offset" result="edge-shadow-in"></feComposite><feOffset dx="0" dy="1" in="edge-shadow-in" result="edge-shadow-final"></feOffset><feMerge result="out"><feMergeNode in="offset-shadow"></feMergeNode><feMergeNode in="comp"></feMergeNode><feMergeNode in="edge-shadow-final"></feMergeNode><feMergeNode in="SourceGraphic"></feMergeNode></feMerge></filter></defs><g filter="url(#editing-shiny)"><g transform="translate(15.9,104.5)"><path d="M -26.1 -7.9 L -40 -7.9 L -31.9 -50.1 L -17.8 -50.1 L -26.1 -7.9 Z M 29.7 -6.6 L 29.7 -6.6 L 29.7 -6.6 Q 21.9 -6.6 21.9 -12.6 L 21.9 -12.6 L 21.9 -12.6 Q 21.9 -15.3 23.1 -20.3 L 23.1 -20.3 L 23.1 -20.3 Q 24.2 -25.4 24.6 -27.5 L 24.6 -27.5 L 24.6 -27.5 Q 25.5 -32.2 25.5 -33.6 L 25.5 -33.6 L 25.5 -33.6 Q 25.5 -36.9 23 -36.9 L 23 -36.9 L 23 -36.9 Q 21.4 -36.9 19.9 -34.7 L 19.9 -34.7 L 19.9 -34.7 Q 18.4 -32.5 17.6 -28.1 L 17.6 -28.1 L 13.7 -7.9 L 1.2 -6.6 L 4.7 -24 L 4.7 -24 Q 5.2 -26.9 5.7 -30.2 L 5.7 -30.2 L 5.7 -30.2 Q 6.3 -33.4 6.3 -34 L 6.3 -34 L 6.3 -34 Q 6.3 -36.9 4.1 -36.9 L 4.1 -36.9 L 4.1 -36.9 Q 2.6 -36.9 1 -34.7 L 1 -34.7 L 1 -34.7 Q -0.6 -32.5 -1.5 -28.1 L -1.5 -28.1 L -5.4 -7.9 L -18 -6.6 L -11.3 -40.5 L -0.9 -41.8 L -1.9 -35.4 L -1.9 -35.4 Q -0.3 -38.8 2.8 -40.3 L 2.8 -40.3 L 2.8 -40.3 Q 5.9 -41.8 10.7 -41.8 L 10.7 -41.8 L 10.7 -41.8 Q 13.4 -41.8 15.2 -40.5 L 15.2 -40.5 L 15.2 -40.5 Q 17 -39.1 17.6 -37 L 17.6 -37 L 17.6 -37 Q 18.7 -39.2 21.5 -40.5 L 21.5 -40.5 L 21.5 -40.5 Q 24.2 -41.8 27.7 -41.8 L 27.7 -41.8 L 27.7 -41.8 Q 31.1 -41.8 32.8 -41.1 L 32.8 -41.1 L 32.8 -41.1 Q 34.5 -40.4 35.5 -39.1 L 35.5 -39.1 L 35.5 -39.1 Q 37.2 -36.9 37.2 -32.8 L 37.2 -32.8 L 37.2 -32.8 Q 37.2 -28.8 35.5 -20.4 L 35.5 -20.4 L 35.5 -20.4 Q 34.6 -16.3 34.6 -14.8 L 34.6 -14.8 L 34.6 -14.8 Q 34.6 -13.3 35.5 -12.4 L 35.5 -12.4 L 35.5 -12.4 Q 36.3 -11.5 37.6 -11.4 L 37.6 -11.4 L 37.6 -11.4 Q 37 -9.2 34.8 -7.9 L 34.8 -7.9 L 34.8 -7.9 Q 32.6 -6.6 29.7 -6.6 Z M 45.3 -9.8 L 45.3 -9.8 L 45.3 -9.8 Q 43.8 -11.5 43.1 -14.1 L 43.1 -14.1 L 43.1 -14.1 Q 42.5 -16.7 42.5 -21 L 42.5 -21 L 42.5 -21 Q 42.5 -25.3 43.9 -29.2 L 43.9 -29.2 L 43.9 -29.2 Q 45.4 -33.1 48.1 -35.9 L 48.1 -35.9 L 48.1 -35.9 Q 53.6 -41.8 62.7 -41.8 L 62.7 -41.8 L 62.7 -41.8 Q 66 -41.8 68.3 -40.7 L 68.3 -40.7 L 79.3 -41.8 L 74.5 -16.9 L 74.5 -16.9 Q 74.4 -16.1 74.4 -14.7 L 74.4 -14.7 L 74.4 -14.7 Q 74.4 -13.3 75.2 -12.4 L 75.2 -12.4 L 75.2 -12.4 Q 76.1 -11.5 77.4 -11.4 L 77.4 -11.4 L 77.4 -11.4 Q 76.7 -9.2 74.4 -7.9 L 74.4 -7.9 L 74.4 -7.9 Q 72.1 -6.6 69.4 -6.6 L 69.4 -6.6 L 69.4 -6.6 Q 66.8 -6.6 65 -7.6 L 65 -7.6 L 65 -7.6 Q 63.3 -8.6 62.8 -10.3 L 62.8 -10.3 L 62.8 -10.3 Q 61.7 -8.7 59.6 -7.6 L 59.6 -7.6 L 59.6 -7.6 Q 57.4 -6.6 54.5 -6.6 L 54.5 -6.6 L 54.5 -6.6 Q 51.6 -6.6 49.2 -7.4 L 49.2 -7.4 L 49.2 -7.4 Q 46.8 -8.2 45.3 -9.8 Z M 58.8 -35.8 L 58.8 -35.8 L 58.8 -35.8 Q 58.1 -34.7 57.5 -32.7 L 57.5 -32.7 L 57.5 -32.7 Q 56.8 -30.8 55.8 -25.5 L 55.8 -25.5 L 55.8 -25.5 Q 54.7 -20.3 54.7 -16.6 L 54.7 -16.6 L 54.7 -16.6 Q 54.7 -12.9 55.3 -11.8 L 55.3 -11.8 L 55.3 -11.8 Q 55.9 -10.7 56.9 -10.7 L 56.9 -10.7 L 56.9 -10.7 Q 58.9 -10.7 60.4 -12.7 L 60.4 -12.7 L 60.4 -12.7 Q 61.9 -14.6 62.5 -18.1 L 62.5 -18.1 L 65.9 -36.8 L 65.9 -36.8 Q 64.6 -38 63 -38 L 63 -38 L 63 -38 Q 61.4 -38 60.5 -37.5 L 60.5 -37.5 L 60.5 -37.5 Q 59.6 -37 58.8 -35.8 Z M 87 -34.7 L 87 -34.7 L 87 -34.7 Q 89.2 -37.7 92.5 -39.8 L 92.5 -39.8 L 92.5 -39.8 Q 95.8 -41.8 99.8 -41.8 L 99.8 -41.8 L 99.8 -41.8 Q 103.9 -41.8 105.8 -40.5 L 105.8 -40.5 L 118.3 -41.8 L 114 -17.2 L 114 -17.2 Q 111.7 -4.7 107 0.2 L 107 0.2 L 107 0.2 Q 102.4 4.9 93.6 4.9 L 93.6 4.9 L 93.6 4.9 Q 86.9 4.9 83.1 2.8 L 83.1 2.8 L 83.1 2.8 Q 79.2 0.7 79.2 -2.8 L 79.2 -2.8 L 79.2 -2.8 Q 79.2 -5.5 81.2 -7 L 81.2 -7 L 81.2 -7 Q 83.2 -8.5 86.3 -8.5 L 86.3 -8.5 L 86.3 -8.5 Q 88.9 -8.5 91 -7.3 L 91 -7.3 L 91 -7.3 Q 92.2 -6.6 92.8 -5.7 L 92.8 -5.7 L 92.8 -5.7 Q 91.3 -4.4 91.3 -2.3 L 91.3 -2.3 L 91.3 -2.3 Q 91.3 0.4 93.9 0.4 L 93.9 0.4 L 93.9 0.4 Q 98.2 0.4 100.6 -9.7 L 100.6 -9.7 L 100.6 -9.7 Q 101.3 -12.4 101.9 -15.2 L 101.9 -15.2 L 101.9 -15.2 Q 99 -11.7 92.5 -11.7 L 92.5 -11.7 L 92.5 -11.7 Q 87.9 -11.7 85.3 -13.9 L 85.3 -13.9 L 85.3 -13.9 Q 82.7 -16 82.7 -21.2 L 82.7 -21.2 L 82.7 -21.2 Q 82.7 -24.3 83.8 -28 L 83.8 -28 L 83.8 -28 Q 84.9 -31.6 87 -34.7 Z M 95.3 -21 L 95.3 -21 L 95.3 -21 Q 95.3 -16.6 97.6 -16.6 L 97.6 -16.6 L 97.6 -16.6 Q 99.1 -16.6 100.6 -18.3 L 100.6 -18.3 L 100.6 -18.3 Q 101.7 -19.6 102.2 -21.6 L 102.2 -21.6 L 105.5 -38 L 105.5 -38 Q 105.1 -38.1 104.8 -38.2 L 104.8 -38.2 L 104.8 -38.2 Q 104.2 -38.5 103.3 -38.5 L 103.3 -38.5 L 103.3 -38.5 Q 99.4 -38.5 97.1 -32.1 L 97.1 -32.1 L 97.1 -32.1 Q 95.3 -27.1 95.3 -21 Z M 146.7 -18.7 L 146.7 -18.7 L 146.7 -18.7 Q 148.3 -17.6 148.3 -15.2 L 148.3 -15.2 L 148.3 -15.2 Q 148.3 -12.8 147.1 -11.3 L 147.1 -11.3 L 147.1 -11.3 Q 145.9 -9.8 143.9 -8.7 L 143.9 -8.7 L 143.9 -8.7 Q 139.8 -6.6 135.4 -6.6 L 135.4 -6.6 L 135.4 -6.6 Q 131 -6.6 128.4 -7.6 L 128.4 -7.6 L 128.4 -7.6 Q 125.8 -8.5 124.1 -10.3 L 124.1 -10.3 L 124.1 -10.3 Q 120.7 -13.7 120.7 -19.9 L 120.7 -19.9 L 120.7 -19.9 Q 120.7 -29.6 125.9 -35.5 L 125.9 -35.5 L 125.9 -35.5 Q 131.6 -41.8 141.4 -41.8 L 141.4 -41.8 L 141.4 -41.8 Q 147.4 -41.8 150.4 -39.3 L 150.4 -39.3 L 150.4 -39.3 Q 152.7 -37.3 152.7 -34.2 L 152.7 -34.2 L 152.7 -34.2 Q 152.7 -22.9 133.2 -22.9 L 133.2 -22.9 L 133.2 -22.9 Q 133 -21.3 133 -19.9 L 133 -19.9 L 133 -19.9 Q 133 -16.9 134.3 -15.8 L 134.3 -15.8 L 134.3 -15.8 Q 135.6 -14.7 138 -14.7 L 138 -14.7 L 138 -14.7 Q 140.5 -14.7 143.1 -15.8 L 143.1 -15.8 L 143.1 -15.8 Q 145.7 -16.9 146.7 -18.7 Z M 133.7 -25.7 L 133.7 -25.7 L 133.7 -25.7 Q 138.2 -25.7 140.9 -28.5 L 140.9 -28.5 L 140.9 -28.5 Q 143.5 -31.2 143.5 -35.5 L 143.5 -35.5 L 143.5 -35.5 Q 143.5 -37 142.9 -37.8 L 142.9 -37.8 L 142.9 -37.8 Q 142.4 -38.6 141.3 -38.6 L 141.3 -38.6 L 141.3 -38.6 Q 140.2 -38.6 139.3 -38.1 L 139.3 -38.1 L 139.3 -38.1 Q 138.4 -37.7 137.4 -36.3 L 137.4 -36.3 L 137.4 -36.3 Q 135 -33.1 133.7 -25.7 Z M 174 -30.4 L 174 -30.4 L 174 -30.4 Q 174.9 -32.7 174.9 -34.8 L 174.9 -34.8 L 174.9 -34.8 Q 174.9 -38.6 171.8 -38.6 L 171.8 -38.6 L 171.8 -38.6 Q 170.2 -38.6 168.9 -37.1 L 168.9 -37.1 L 168.9 -37.1 Q 167.6 -35.7 167.6 -33.9 L 167.6 -33.9 L 167.6 -33.9 Q 167.6 -32.6 168.6 -31.6 L 168.6 -31.6 L 168.6 -31.6 Q 170.1 -30.2 173.9 -27.9 L 173.9 -27.9 L 173.9 -27.9 Q 177.7 -25.6 179.1 -23.7 L 179.1 -23.7 L 179.1 -23.7 Q 180.5 -21.8 180.5 -19.2 L 180.5 -19.2 L 180.5 -19.2 Q 180.5 -16.6 179.3 -14.2 L 179.3 -14.2 L 179.3 -14.2 Q 178 -11.9 175.8 -10.2 L 175.8 -10.2 L 175.8 -10.2 Q 171 -6.6 163.3 -6.6 L 163.3 -6.6 L 163.3 -6.6 Q 159.2 -6.6 155.9 -8.8 L 155.9 -8.8 L 155.9 -8.8 Q 152.8 -10.9 152.8 -13.4 L 152.8 -13.4 L 152.8 -13.4 Q 152.8 -15.9 154.6 -17.4 L 154.6 -17.4 L 154.6 -17.4 Q 156.4 -18.8 159.1 -18.8 L 159.1 -18.8 L 159.1 -18.8 Q 161.8 -18.8 163.4 -17.8 L 163.4 -17.8 L 163.4 -17.8 Q 162.6 -15.7 162.6 -14.3 L 162.6 -14.3 L 162.6 -14.3 Q 162.6 -10.1 166.2 -10.1 L 166.2 -10.1 L 166.2 -10.1 Q 167.7 -10.1 168.8 -11 L 168.8 -11 L 168.8 -11 Q 169.8 -12 169.8 -13.7 L 169.8 -13.7 L 169.8 -13.7 Q 169.8 -16.9 164.3 -20.4 L 164.3 -20.4 L 164.3 -20.4 Q 159.8 -23.3 158.8 -24.5 L 158.8 -24.5 L 158.8 -24.5 Q 157 -26.5 157 -29.1 L 157 -29.1 L 157 -29.1 Q 157 -31.6 158.3 -34.1 L 158.3 -34.1 L 158.3 -34.1 Q 159.5 -36.5 161.7 -38.2 L 161.7 -38.2 L 161.7 -38.2 Q 166.4 -41.8 174.5 -41.8 L 174.5 -41.8 L 174.5 -41.8 Q 178.7 -41.8 181.1 -40.2 L 181.1 -40.2 L 181.1 -40.2 Q 183.6 -38.5 183.6 -35.7 L 183.6 -35.7 L 183.6 -35.7 Q 183.6 -32.9 181.9 -31.3 L 181.9 -31.3 L 181.9 -31.3 Q 180.2 -29.7 177.1 -29.7 L 177.1 -29.7 L 177.1 -29.7 Q 175 -29.7 174 -30.4 Z M 225.1 -28.5 L 238 -29.7 L 238 -29.7 Q 233.4 -19.6 233.4 -7.8 L 233.4 -7.8 L 233.4 -7.8 Q 231.7 -6.6 229.1 -6.6 L 229.1 -6.6 L 229.1 -6.6 Q 226.6 -6.6 225 -7.8 L 225 -7.8 L 225 -7.8 Q 223.4 -9 223.1 -10.2 L 223.1 -10.2 L 223.1 -10.2 Q 221.5 -8.5 218.9 -7.6 L 218.9 -7.6 L 218.9 -7.6 Q 216.3 -6.6 213.5 -6.6 L 213.5 -6.6 L 213.5 -6.6 Q 210.8 -6.6 208.4 -7.5 L 208.4 -7.5 L 208.4 -7.5 Q 206 -8.4 204.1 -10.4 L 204.1 -10.4 L 204.1 -10.4 Q 200 -14.7 200 -23 L 200 -23 L 200 -23 Q 200 -35.8 206.9 -43.5 L 206.9 -43.5 L 206.9 -43.5 Q 213.9 -51.4 226.4 -51.4 L 226.4 -51.4 L 226.4 -51.4 Q 235.1 -51.4 238.1 -46.9 L 238.1 -46.9 L 238.1 -46.9 Q 239.1 -45.5 239.1 -43.8 L 239.1 -43.8 L 239.1 -43.8 Q 239.1 -42.1 238.4 -40.7 L 238.4 -40.7 L 238.4 -40.7 Q 237.6 -39.3 236.5 -38.1 L 236.5 -38.1 L 236.5 -38.1 Q 233.7 -35.5 230.3 -35.5 L 230.3 -35.5 L 230.3 -35.5 Q 229 -35.5 227.7 -36 L 227.7 -36 L 227.7 -36 Q 228 -37.9 228 -40.2 L 228 -40.2 L 228 -40.2 Q 228 -42.4 227.8 -43.4 L 227.8 -43.4 L 227.8 -43.4 Q 227.6 -44.4 227.2 -45.3 L 227.2 -45.3 L 227.2 -45.3 Q 226.4 -47 224.6 -47 L 224.6 -47 L 224.6 -47 Q 222.8 -47 220.7 -45 L 220.7 -45 L 220.7 -45 Q 218.7 -43.1 217.1 -39.9 L 217.1 -39.9 L 217.1 -39.9 Q 213.6 -32.7 213.6 -24.1 L 213.6 -24.1 L 213.6 -24.1 Q 213.6 -20.1 215.2 -17.3 L 215.2 -17.3 L 215.2 -17.3 Q 216.8 -14.2 219.8 -14.2 L 219.8 -14.2 L 219.8 -14.2 Q 220.8 -14.2 221.7 -14.7 L 221.7 -14.7 L 221.7 -14.7 Q 222.6 -15.3 223 -15.6 L 223 -15.6 L 225.1 -28.5 Z M 243.9 -9.8 L 243.9 -9.8 L 243.9 -9.8 Q 242.4 -11.5 241.7 -14.1 L 241.7 -14.1 L 241.7 -14.1 Q 241.1 -16.7 241.1 -21 L 241.1 -21 L 241.1 -21 Q 241.1 -25.3 242.5 -29.2 L 242.5 -29.2 L 242.5 -29.2 Q 244 -33.1 246.7 -35.9 L 246.7 -35.9 L 246.7 -35.9 Q 252.2 -41.8 261.3 -41.8 L 261.3 -41.8 L 261.3 -41.8 Q 264.6 -41.8 266.9 -40.7 L 266.9 -40.7 L 277.9 -41.8 L 273.1 -16.9 L 273.1 -16.9 Q 272.9 -16.1 272.9 -14.7 L 272.9 -14.7 L 272.9 -14.7 Q 272.9 -13.3 273.8 -12.4 L 273.8 -12.4 L 273.8 -12.4 Q 274.7 -11.5 276 -11.4 L 276 -11.4 L 276 -11.4 Q 275.3 -9.2 273 -7.9 L 273 -7.9 L 273 -7.9 Q 270.6 -6.6 268 -6.6 L 268 -6.6 L 268 -6.6 Q 265.4 -6.6 263.6 -7.6 L 263.6 -7.6 L 263.6 -7.6 Q 261.9 -8.6 261.4 -10.3 L 261.4 -10.3 L 261.4 -10.3 Q 260.3 -8.7 258.2 -7.6 L 258.2 -7.6 L 258.2 -7.6 Q 256 -6.6 253.1 -6.6 L 253.1 -6.6 L 253.1 -6.6 Q 250.2 -6.6 247.8 -7.4 L 247.8 -7.4 L 247.8 -7.4 Q 245.4 -8.2 243.9 -9.8 Z M 257.4 -35.8 L 257.4 -35.8 L 257.4 -35.8 Q 256.7 -34.7 256 -32.7 L 256 -32.7 L 256 -32.7 Q 255.4 -30.8 254.4 -25.5 L 254.4 -25.5 L 254.4 -25.5 Q 253.3 -20.3 253.3 -16.6 L 253.3 -16.6 L 253.3 -16.6 Q 253.3 -12.9 253.9 -11.8 L 253.9 -11.8 L 253.9 -11.8 Q 254.5 -10.7 255.5 -10.7 L 255.5 -10.7 L 255.5 -10.7 Q 257.5 -10.7 259 -12.7 L 259 -12.7 L 259 -12.7 Q 260.5 -14.6 261.1 -18.1 L 261.1 -18.1 L 264.5 -36.8 L 264.5 -36.8 Q 263.2 -38 261.6 -38 L 261.6 -38 L 261.6 -38 Q 260 -38 259.1 -37.5 L 259.1 -37.5 L 259.1 -37.5 Q 258.2 -37 257.4 -35.8 Z M 296.6 -11.4 L 296.6 -11.4 L 296.6 -11.4 Q 294.6 -6.6 288.3 -6.6 L 288.3 -6.6 L 288.3 -6.6 Q 285.1 -6.6 283.1 -8.9 L 283.1 -8.9 L 283.1 -8.9 Q 281.4 -10.7 281.4 -12.8 L 281.4 -12.8 L 281.4 -12.8 Q 281.4 -17.6 283.6 -28.1 L 283.6 -28.1 L 288.3 -52.7 L 301.3 -54 L 295.1 -21.6 L 295.1 -21.6 Q 294 -16.9 294 -15.2 L 294 -15.2 L 294 -15.2 Q 294 -11.5 296.6 -11.4 Z M 317.4 -11.4 L 317.4 -11.4 L 317.4 -11.4 Q 315.4 -6.6 309 -6.6 L 309 -6.6 L 309 -6.6 Q 305.8 -6.6 303.8 -8.9 L 303.8 -8.9 L 303.8 -8.9 Q 302.1 -10.7 302.1 -12.8 L 302.1 -12.8 L 302.1 -12.8 Q 302.1 -17.6 304.4 -28.1 L 304.4 -28.1 L 309 -52.7 L 322 -54 L 315.8 -21.6 L 315.8 -21.6 Q 314.7 -16.9 314.7 -15.2 L 314.7 -15.2 L 314.7 -15.2 Q 314.7 -11.5 317.4 -11.4 Z M 348.7 -18.7 L 348.7 -18.7 L 348.7 -18.7 Q 350.3 -17.6 350.3 -15.2 L 350.3 -15.2 L 350.3 -15.2 Q 350.3 -12.8 349.1 -11.3 L 349.1 -11.3 L 349.1 -11.3 Q 347.9 -9.8 345.9 -8.7 L 345.9 -8.7 L 345.9 -8.7 Q 341.8 -6.6 337.4 -6.6 L 337.4 -6.6 L 337.4 -6.6 Q 333 -6.6 330.4 -7.6 L 330.4 -7.6 L 330.4 -7.6 Q 327.8 -8.5 326.1 -10.3 L 326.1 -10.3 L 326.1 -10.3 Q 322.7 -13.7 322.7 -19.9 L 322.7 -19.9 L 322.7 -19.9 Q 322.7 -29.6 327.9 -35.5 L 327.9 -35.5 L 327.9 -35.5 Q 333.5 -41.8 343.3 -41.8 L 343.3 -41.8 L 343.3 -41.8 Q 349.4 -41.8 352.4 -39.3 L 352.4 -39.3 L 352.4 -39.3 Q 354.7 -37.3 354.7 -34.2 L 354.7 -34.2 L 354.7 -34.2 Q 354.7 -22.9 335.2 -22.9 L 335.2 -22.9 L 335.2 -22.9 Q 335 -21.3 335 -19.9 L 335 -19.9 L 335 -19.9 Q 335 -16.9 336.3 -15.8 L 336.3 -15.8 L 336.3 -15.8 Q 337.6 -14.7 340 -14.7 L 340 -14.7 L 340 -14.7 Q 342.5 -14.7 345 -15.8 L 345 -15.8 L 345 -15.8 Q 347.6 -16.9 348.7 -18.7 Z M 335.7 -25.7 L 335.7 -25.7 L 335.7 -25.7 Q 340.2 -25.7 342.8 -28.5 L 342.8 -28.5 L 342.8 -28.5 Q 345.5 -31.2 345.5 -35.5 L 345.5 -35.5 L 345.5 -35.5 Q 345.5 -37 344.9 -37.8 L 344.9 -37.8 L 344.9 -37.8 Q 344.4 -38.6 343.3 -38.6 L 343.3 -38.6 L 343.3 -38.6 Q 342.2 -38.6 341.3 -38.1 L 341.3 -38.1 L 341.3 -38.1 Q 340.3 -37.7 339.4 -36.3 L 339.4 -36.3 L 339.4 -36.3 Q 337 -33.1 335.7 -25.7 Z M 376.9 -25.9 L 376.9 -25.9 L 376.9 -25.9 Q 379.2 -30 379.2 -34.1 L 379.2 -34.1 L 379.2 -34.1 Q 379.2 -36.9 377.2 -36.9 L 377.2 -36.9 L 377.2 -36.9 Q 375.7 -36.9 374.1 -34.3 L 374.1 -34.3 L 374.1 -34.3 Q 372.4 -31.6 371.9 -28.3 L 371.9 -28.3 L 368.6 -7.9 L 355.3 -6.6 L 361.8 -40.5 L 372.4 -41.8 L 371.2 -35.4 L 371.2 -35.4 Q 374.4 -41.8 381.4 -41.8 L 381.4 -41.8 L 381.4 -41.8 Q 385.1 -41.8 387.2 -39.9 L 387.2 -39.9 L 387.2 -39.9 Q 389.2 -38 389.2 -34 L 389.2 -34 L 389.2 -34 Q 389.2 -30.1 386.6 -27.6 L 386.6 -27.6 L 386.6 -27.6 Q 384 -25.1 379.6 -25.1 L 379.6 -25.1 L 379.6 -25.1 Q 377.7 -25.1 376.9 -25.9 Z M 410.5 -15.1 L 410.5 -15.1 L 410.5 -15.1 Q 407.2 -11.7 401.1 -11.7 L 401.1 -11.7 L 401.1 -11.7 Q 393.5 -11.7 391.9 -17.2 L 391.9 -17.2 L 391.9 -17.2 Q 391.4 -18.9 391.4 -20.8 L 391.4 -20.8 L 391.4 -20.8 Q 391.4 -22.6 391.8 -24.5 L 391.8 -24.5 L 394.8 -40.5 L 407.8 -41.8 L 404.3 -23.2 L 404.3 -23.2 Q 404.1 -22.4 404 -21.5 L 404 -21.5 L 404 -21.5 Q 403.8 -20.6 403.8 -19.6 L 403.8 -19.6 L 403.8 -19.6 Q 403.8 -18.7 404.1 -18.1 L 404.1 -18.1 L 404.1 -18.1 Q 404.4 -17.5 404.9 -17.1 L 404.9 -17.1 L 404.9 -17.1 Q 405.6 -16.6 407 -16.6 L 407 -16.6 L 407 -16.6 Q 408.4 -16.6 409.5 -18.3 L 409.5 -18.3 L 409.5 -18.3 Q 410.7 -19.9 411.3 -22.8 L 411.3 -22.8 L 414.8 -40.5 L 427.4 -41.8 L 422.6 -16.7 L 422.6 -16.7 Q 420.3 -4.4 415.4 0.5 L 415.4 0.5 L 415.4 0.5 Q 412.9 3 409.7 4 L 409.7 4 L 409.7 4 Q 406.5 5 402.3 5 L 402.3 5 L 402.3 5 Q 395.6 5 391.7 2.9 L 391.7 2.9 L 391.7 2.9 Q 387.9 0.7 387.9 -2.8 L 387.9 -2.8 L 387.9 -2.8 Q 387.9 -5.4 389.9 -6.9 L 389.9 -6.9 L 389.9 -6.9 Q 391.9 -8.4 394.9 -8.4 L 394.9 -8.4 L 394.9 -8.4 Q 397.6 -8.4 399.7 -7.3 L 399.7 -7.3 L 399.7 -7.3 Q 400.9 -6.6 401.5 -5.7 L 401.5 -5.7 L 401.5 -5.7 Q 400 -4.4 400 -2.3 L 400 -2.3 L 400 -2.3 Q 400 0.5 402.5 0.5 L 402.5 0.5 L 402.5 0.5 Q 406.8 0.5 409.2 -9.2 L 409.2 -9.2 L 409.2 -9.2 Q 409.9 -12.1 410.5 -15.1 Z" fill="url(#editing-shiny-gradient)"></path></g></g><g filter="url(#editing-shiny2)"><g transform="translate(15.9,104.5)"><path d="M -34 -4.4 L -47.9 -4.4 L -39.8 -46.7 L -25.7 -46.7 L -34 -4.4 Z M 21.8 -3.1 L 21.8 -3.1 L 21.8 -3.1 Q 14 -3.1 14 -9.2 L 14 -9.2 L 14 -9.2 Q 14 -11.8 15.2 -16.9 L 15.2 -16.9 L 15.2 -16.9 Q 16.3 -22 16.7 -24 L 16.7 -24 L 16.7 -24 Q 17.6 -28.7 17.6 -30.2 L 17.6 -30.2 L 17.6 -30.2 Q 17.6 -33.4 15.1 -33.4 L 15.1 -33.4 L 15.1 -33.4 Q 13.5 -33.4 12 -31.2 L 12 -31.2 L 12 -31.2 Q 10.5 -29 9.8 -24.6 L 9.8 -24.6 L 5.8 -4.4 L -6.7 -3.1 L -3.2 -20.6 L -3.2 -20.6 Q -2.7 -23.4 -2.2 -26.7 L -2.2 -26.7 L -2.2 -26.7 Q -1.6 -30 -1.6 -30.5 L -1.6 -30.5 L -1.6 -30.5 Q -1.6 -33.4 -3.8 -33.4 L -3.8 -33.4 L -3.8 -33.4 Q -5.3 -33.4 -6.9 -31.2 L -6.9 -31.2 L -6.9 -31.2 Q -8.5 -29.1 -9.4 -24.6 L -9.4 -24.6 L -13.3 -4.4 L -25.9 -3.1 L -19.2 -37.1 L -8.7 -38.3 L -9.8 -31.9 L -9.8 -31.9 Q -8.2 -35.3 -5.1 -36.8 L -5.1 -36.8 L -5.1 -36.8 Q -2 -38.3 2.8 -38.3 L 2.8 -38.3 L 2.8 -38.3 Q 5.5 -38.3 7.3 -37 L 7.3 -37 L 7.3 -37 Q 9.1 -35.7 9.7 -33.5 L 9.7 -33.5 L 9.7 -33.5 Q 10.8 -35.7 13.6 -37 L 13.6 -37 L 13.6 -37 Q 16.3 -38.3 19.8 -38.3 L 19.8 -38.3 L 19.8 -38.3 Q 23.2 -38.3 24.9 -37.6 L 24.9 -37.6 L 24.9 -37.6 Q 26.6 -36.9 27.6 -35.7 L 27.6 -35.7 L 27.6 -35.7 Q 29.3 -33.4 29.3 -29.3 L 29.3 -29.3 L 29.3 -29.3 Q 29.3 -25.3 27.6 -16.9 L 27.6 -16.9 L 27.6 -16.9 Q 26.7 -12.8 26.7 -11.3 L 26.7 -11.3 L 26.7 -11.3 Q 26.7 -9.8 27.6 -8.9 L 27.6 -8.9 L 27.6 -8.9 Q 28.4 -8 29.7 -7.9 L 29.7 -7.9 L 29.7 -7.9 Q 29.1 -5.7 26.9 -4.4 L 26.9 -4.4 L 26.9 -4.4 Q 24.7 -3.1 21.8 -3.1 Z M 37.4 -6.3 L 37.4 -6.3 L 37.4 -6.3 Q 35.9 -8 35.3 -10.6 L 35.3 -10.6 L 35.3 -10.6 Q 34.6 -13.3 34.6 -17.5 L 34.6 -17.5 L 34.6 -17.5 Q 34.6 -21.8 36.1 -25.7 L 36.1 -25.7 L 36.1 -25.7 Q 37.5 -29.6 40.2 -32.5 L 40.2 -32.5 L 40.2 -32.5 Q 45.7 -38.3 54.8 -38.3 L 54.8 -38.3 L 54.8 -38.3 Q 58.1 -38.3 60.4 -37.3 L 60.4 -37.3 L 71.4 -38.3 L 66.6 -13.4 L 66.6 -13.4 Q 66.5 -12.6 66.5 -11.2 L 66.5 -11.2 L 66.5 -11.2 Q 66.5 -9.8 67.3 -8.9 L 67.3 -8.9 L 67.3 -8.9 Q 68.2 -8 69.5 -7.9 L 69.5 -7.9 L 69.5 -7.9 Q 68.8 -5.7 66.5 -4.4 L 66.5 -4.4 L 66.5 -4.4 Q 64.2 -3.1 61.5 -3.1 L 61.5 -3.1 L 61.5 -3.1 Q 58.9 -3.1 57.1 -4.1 L 57.1 -4.1 L 57.1 -4.1 Q 55.4 -5.1 54.9 -6.8 L 54.9 -6.8 L 54.9 -6.8 Q 53.8 -5.2 51.7 -4.2 L 51.7 -4.2 L 51.7 -4.2 Q 49.5 -3.1 46.6 -3.1 L 46.6 -3.1 L 46.6 -3.1 Q 43.7 -3.1 41.3 -3.9 L 41.3 -3.9 L 41.3 -3.9 Q 38.9 -4.7 37.4 -6.3 Z M 50.9 -32.3 L 50.9 -32.3 L 50.9 -32.3 Q 50.2 -31.2 49.6 -29.2 L 49.6 -29.2 L 49.6 -29.2 Q 48.9 -27.3 47.9 -22.1 L 47.9 -22.1 L 47.9 -22.1 Q 46.8 -16.8 46.8 -13.1 L 46.8 -13.1 L 46.8 -13.1 Q 46.8 -9.4 47.4 -8.3 L 47.4 -8.3 L 47.4 -8.3 Q 48 -7.2 49 -7.2 L 49 -7.2 L 49 -7.2 Q 51 -7.2 52.5 -9.2 L 52.5 -9.2 L 52.5 -9.2 Q 54 -11.1 54.6 -14.6 L 54.6 -14.6 L 58 -33.4 L 58 -33.4 Q 56.7 -34.5 55.1 -34.5 L 55.1 -34.5 L 55.1 -34.5 Q 53.5 -34.5 52.6 -34 L 52.6 -34 L 52.6 -34 Q 51.7 -33.5 50.9 -32.3 Z M 79.1 -31.2 L 79.1 -31.2 L 79.1 -31.2 Q 81.3 -34.2 84.6 -36.3 L 84.6 -36.3 L 84.6 -36.3 Q 87.9 -38.3 91.9 -38.3 L 91.9 -38.3 L 91.9 -38.3 Q 96 -38.3 97.9 -37.1 L 97.9 -37.1 L 110.4 -38.3 L 106.1 -13.8 L 106.1 -13.8 Q 103.8 -1.2 99.1 3.7 L 99.1 3.7 L 99.1 3.7 Q 94.6 8.4 85.7 8.4 L 85.7 8.4 L 85.7 8.4 Q 79 8.4 75.2 6.3 L 75.2 6.3 L 75.2 6.3 Q 71.3 4.2 71.3 0.6 L 71.3 0.6 L 71.3 0.6 Q 71.3 -2 73.3 -3.5 L 73.3 -3.5 L 73.3 -3.5 Q 75.3 -5 78.4 -5 L 78.4 -5 L 78.4 -5 Q 81 -5 83.1 -3.8 L 83.1 -3.8 L 83.1 -3.8 Q 84.3 -3.1 84.9 -2.2 L 84.9 -2.2 L 84.9 -2.2 Q 83.4 -1 83.4 1.1 L 83.4 1.1 L 83.4 1.1 Q 83.4 3.9 86 3.9 L 86 3.9 L 86 3.9 Q 90.3 3.9 92.7 -6.2 L 92.7 -6.2 L 92.7 -6.2 Q 93.4 -9 94 -11.7 L 94 -11.7 L 94 -11.7 Q 91.1 -8.2 84.6 -8.2 L 84.6 -8.2 L 84.6 -8.2 Q 80 -8.2 77.4 -10.4 L 77.4 -10.4 L 77.4 -10.4 Q 74.8 -12.6 74.8 -17.7 L 74.8 -17.7 L 74.8 -17.7 Q 74.8 -20.9 75.9 -24.5 L 75.9 -24.5 L 75.9 -24.5 Q 77 -28.1 79.1 -31.2 Z M 87.4 -17.5 L 87.4 -17.5 L 87.4 -17.5 Q 87.4 -13.1 89.7 -13.1 L 89.7 -13.1 L 89.7 -13.1 Q 91.2 -13.1 92.7 -14.8 L 92.7 -14.8 L 92.7 -14.8 Q 93.8 -16.1 94.3 -18.1 L 94.3 -18.1 L 97.6 -34.6 L 97.6 -34.6 Q 97.2 -34.6 96.9 -34.8 L 96.9 -34.8 L 96.9 -34.8 Q 96.3 -35 95.4 -35 L 95.4 -35 L 95.4 -35 Q 91.5 -35 89.2 -28.6 L 89.2 -28.6 L 89.2 -28.6 Q 87.4 -23.6 87.4 -17.5 Z M 138.8 -15.2 L 138.8 -15.2 L 138.8 -15.2 Q 140.4 -14.2 140.4 -11.8 L 140.4 -11.8 L 140.4 -11.8 Q 140.4 -9.4 139.2 -7.8 L 139.2 -7.8 L 139.2 -7.8 Q 138 -6.3 136 -5.3 L 136 -5.3 L 136 -5.3 Q 131.9 -3.1 127.5 -3.1 L 127.5 -3.1 L 127.5 -3.1 Q 123.1 -3.1 120.5 -4.1 L 120.5 -4.1 L 120.5 -4.1 Q 117.9 -5.1 116.2 -6.9 L 116.2 -6.9 L 116.2 -6.9 Q 112.8 -10.2 112.8 -16.5 L 112.8 -16.5 L 112.8 -16.5 Q 112.8 -26.1 118 -32 L 118 -32 L 118 -32 Q 123.7 -38.3 133.5 -38.3 L 133.5 -38.3 L 133.5 -38.3 Q 139.5 -38.3 142.6 -35.8 L 142.6 -35.8 L 142.6 -35.8 Q 144.8 -33.9 144.8 -30.7 L 144.8 -30.7 L 144.8 -30.7 Q 144.8 -19.5 125.3 -19.5 L 125.3 -19.5 L 125.3 -19.5 Q 125.1 -17.8 125.1 -16.4 L 125.1 -16.4 L 125.1 -16.4 Q 125.1 -13.4 126.4 -12.3 L 126.4 -12.3 L 126.4 -12.3 Q 127.7 -11.2 130.1 -11.2 L 130.1 -11.2 L 130.1 -11.2 Q 132.6 -11.2 135.2 -12.3 L 135.2 -12.3 L 135.2 -12.3 Q 137.8 -13.4 138.8 -15.2 Z M 125.8 -22.2 L 125.8 -22.2 L 125.8 -22.2 Q 130.3 -22.2 133 -25 L 133 -25 L 133 -25 Q 135.6 -27.7 135.6 -32 L 135.6 -32 L 135.6 -32 Q 135.6 -33.5 135 -34.3 L 135 -34.3 L 135 -34.3 Q 134.5 -35.1 133.4 -35.1 L 133.4 -35.1 L 133.4 -35.1 Q 132.3 -35.1 131.4 -34.7 L 131.4 -34.7 L 131.4 -34.7 Q 130.5 -34.2 129.5 -32.8 L 129.5 -32.8 L 129.5 -32.8 Q 127.1 -29.6 125.8 -22.2 Z M 166.1 -26.9 L 166.1 -26.9 L 166.1 -26.9 Q 167 -29.3 167 -31.3 L 167 -31.3 L 167 -31.3 Q 167 -35.1 163.9 -35.1 L 163.9 -35.1 L 163.9 -35.1 Q 162.3 -35.1 161 -33.6 L 161 -33.6 L 161 -33.6 Q 159.7 -32.2 159.7 -30.4 L 159.7 -30.4 L 159.7 -30.4 Q 159.7 -29.1 160.7 -28.1 L 160.7 -28.1 L 160.7 -28.1 Q 162.2 -26.7 166 -24.4 L 166 -24.4 L 166 -24.4 Q 169.8 -22.1 171.2 -20.2 L 171.2 -20.2 L 171.2 -20.2 Q 172.6 -18.3 172.6 -15.7 L 172.6 -15.7 L 172.6 -15.7 Q 172.6 -13.1 171.4 -10.8 L 171.4 -10.8 L 171.4 -10.8 Q 170.1 -8.4 167.9 -6.7 L 167.9 -6.7 L 167.9 -6.7 Q 163.1 -3.1 155.4 -3.1 L 155.4 -3.1 L 155.4 -3.1 Q 151.3 -3.1 148.1 -5.3 L 148.1 -5.3 L 148.1 -5.3 Q 144.9 -7.4 144.9 -9.9 L 144.9 -9.9 L 144.9 -9.9 Q 144.9 -12.4 146.7 -13.9 L 146.7 -13.9 L 146.7 -13.9 Q 148.5 -15.4 151.2 -15.4 L 151.2 -15.4 L 151.2 -15.4 Q 153.9 -15.4 155.5 -14.3 L 155.5 -14.3 L 155.5 -14.3 Q 154.7 -12.2 154.7 -10.8 L 154.7 -10.8 L 154.7 -10.8 Q 154.7 -6.6 158.3 -6.6 L 158.3 -6.6 L 158.3 -6.6 Q 159.8 -6.6 160.9 -7.6 L 160.9 -7.6 L 160.9 -7.6 Q 161.9 -8.5 161.9 -10.2 L 161.9 -10.2 L 161.9 -10.2 Q 161.9 -13.4 156.4 -16.9 L 156.4 -16.9 L 156.4 -16.9 Q 151.9 -19.8 150.9 -21 L 150.9 -21 L 150.9 -21 Q 149.1 -23 149.1 -25.6 L 149.1 -25.6 L 149.1 -25.6 Q 149.1 -28.2 150.4 -30.6 L 150.4 -30.6 L 150.4 -30.6 Q 151.6 -33 153.8 -34.8 L 153.8 -34.8 L 153.8 -34.8 Q 158.5 -38.3 166.6 -38.3 L 166.6 -38.3 L 166.6 -38.3 Q 170.8 -38.3 173.2 -36.7 L 173.2 -36.7 L 173.2 -36.7 Q 175.7 -35 175.7 -32.2 L 175.7 -32.2 L 175.7 -32.2 Q 175.7 -29.4 174 -27.8 L 174 -27.8 L 174 -27.8 Q 172.3 -26.2 169.2 -26.2 L 169.2 -26.2 L 169.2 -26.2 Q 167.1 -26.2 166.1 -26.9 Z M 217.2 -25 L 230.1 -26.2 L 230.1 -26.2 Q 225.5 -16.1 225.5 -4.4 L 225.5 -4.4 L 225.5 -4.4 Q 223.8 -3.1 221.2 -3.1 L 221.2 -3.1 L 221.2 -3.1 Q 218.7 -3.1 217.1 -4.3 L 217.1 -4.3 L 217.1 -4.3 Q 215.5 -5.5 215.2 -6.7 L 215.2 -6.7 L 215.2 -6.7 Q 213.6 -5.1 211 -4.1 L 211 -4.1 L 211 -4.1 Q 208.4 -3.1 205.7 -3.1 L 205.7 -3.1 L 205.7 -3.1 Q 202.9 -3.1 200.5 -4 L 200.5 -4 L 200.5 -4 Q 198.1 -4.9 196.2 -6.9 L 196.2 -6.9 L 196.2 -6.9 Q 192.2 -11.3 192.2 -19.5 L 192.2 -19.5 L 192.2 -19.5 Q 192.2 -32.3 199 -40 L 199 -40 L 199 -40 Q 206 -47.9 218.5 -47.9 L 218.5 -47.9 L 218.5 -47.9 Q 227.2 -47.9 230.2 -43.5 L 230.2 -43.5 L 230.2 -43.5 Q 231.2 -42.1 231.2 -40.4 L 231.2 -40.4 L 231.2 -40.4 Q 231.2 -38.7 230.5 -37.2 L 230.5 -37.2 L 230.5 -37.2 Q 229.7 -35.8 228.6 -34.6 L 228.6 -34.6 L 228.6 -34.6 Q 225.8 -32.1 222.4 -32.1 L 222.4 -32.1 L 222.4 -32.1 Q 221.1 -32.1 219.8 -32.5 L 219.8 -32.5 L 219.8 -32.5 Q 220.1 -34.4 220.1 -36.7 L 220.1 -36.7 L 220.1 -36.7 Q 220.1 -38.9 219.9 -39.9 L 219.9 -39.9 L 219.9 -39.9 Q 219.7 -41 219.4 -41.8 L 219.4 -41.8 L 219.4 -41.8 Q 218.5 -43.5 216.7 -43.5 L 216.7 -43.5 L 216.7 -43.5 Q 214.9 -43.5 212.9 -41.6 L 212.9 -41.6 L 212.9 -41.6 Q 210.8 -39.6 209.2 -36.4 L 209.2 -36.4 L 209.2 -36.4 Q 205.7 -29.3 205.7 -20.6 L 205.7 -20.6 L 205.7 -20.6 Q 205.7 -16.6 207.3 -13.8 L 207.3 -13.8 L 207.3 -13.8 Q 208.9 -10.8 211.9 -10.8 L 211.9 -10.8 L 211.9 -10.8 Q 212.9 -10.8 213.8 -11.3 L 213.8 -11.3 L 213.8 -11.3 Q 214.7 -11.8 215.1 -12.2 L 215.1 -12.2 L 217.2 -25 Z M 236 -6.3 L 236 -6.3 L 236 -6.3 Q 234.5 -8 233.8 -10.6 L 233.8 -10.6 L 233.8 -10.6 Q 233.2 -13.3 233.2 -17.5 L 233.2 -17.5 L 233.2 -17.5 Q 233.2 -21.8 234.6 -25.7 L 234.6 -25.7 L 234.6 -25.7 Q 236.1 -29.6 238.8 -32.5 L 238.8 -32.5 L 238.8 -32.5 Q 244.3 -38.3 253.4 -38.3 L 253.4 -38.3 L 253.4 -38.3 Q 256.7 -38.3 259 -37.3 L 259 -37.3 L 270 -38.3 L 265.2 -13.4 L 265.2 -13.4 Q 265 -12.6 265 -11.2 L 265 -11.2 L 265 -11.2 Q 265 -9.8 265.9 -8.9 L 265.9 -8.9 L 265.9 -8.9 Q 266.8 -8 268.1 -7.9 L 268.1 -7.9 L 268.1 -7.9 Q 267.4 -5.7 265.1 -4.4 L 265.1 -4.4 L 265.1 -4.4 Q 262.7 -3.1 260.1 -3.1 L 260.1 -3.1 L 260.1 -3.1 Q 257.5 -3.1 255.7 -4.1 L 255.7 -4.1 L 255.7 -4.1 Q 254 -5.1 253.5 -6.8 L 253.5 -6.8 L 253.5 -6.8 Q 252.4 -5.2 250.3 -4.2 L 250.3 -4.2 L 250.3 -4.2 Q 248.1 -3.1 245.2 -3.1 L 245.2 -3.1 L 245.2 -3.1 Q 242.3 -3.1 239.9 -3.9 L 239.9 -3.9 L 239.9 -3.9 Q 237.5 -4.7 236 -6.3 Z M 249.5 -32.3 L 249.5 -32.3 L 249.5 -32.3 Q 248.8 -31.2 248.2 -29.2 L 248.2 -29.2 L 248.2 -29.2 Q 247.5 -27.3 246.5 -22.1 L 246.5 -22.1 L 246.5 -22.1 Q 245.4 -16.8 245.4 -13.1 L 245.4 -13.1 L 245.4 -13.1 Q 245.4 -9.4 246 -8.3 L 246 -8.3 L 246 -8.3 Q 246.6 -7.2 247.6 -7.2 L 247.6 -7.2 L 247.6 -7.2 Q 249.6 -7.2 251.1 -9.2 L 251.1 -9.2 L 251.1 -9.2 Q 252.6 -11.1 253.2 -14.6 L 253.2 -14.6 L 256.6 -33.4 L 256.6 -33.4 Q 255.3 -34.5 253.7 -34.5 L 253.7 -34.5 L 253.7 -34.5 Q 252.1 -34.5 251.2 -34 L 251.2 -34 L 251.2 -34 Q 250.3 -33.5 249.5 -32.3 Z M 288.7 -7.9 L 288.7 -7.9 L 288.7 -7.9 Q 286.7 -3.1 280.4 -3.1 L 280.4 -3.1 L 280.4 -3.1 Q 277.2 -3.1 275.2 -5.4 L 275.2 -5.4 L 275.2 -5.4 Q 273.5 -7.2 273.5 -9.4 L 273.5 -9.4 L 273.5 -9.4 Q 273.5 -14.2 275.7 -24.6 L 275.7 -24.6 L 280.4 -49.2 L 293.4 -50.5 L 287.2 -18.1 L 287.2 -18.1 Q 286.1 -13.4 286.1 -11.7 L 286.1 -11.7 L 286.1 -11.7 Q 286.1 -8.1 288.7 -7.9 Z M 309.5 -7.9 L 309.5 -7.9 L 309.5 -7.9 Q 307.5 -3.1 301.1 -3.1 L 301.1 -3.1 L 301.1 -3.1 Q 297.9 -3.1 295.9 -5.4 L 295.9 -5.4 L 295.9 -5.4 Q 294.2 -7.2 294.2 -9.4 L 294.2 -9.4 L 294.2 -9.4 Q 294.2 -14.2 296.5 -24.6 L 296.5 -24.6 L 301.1 -49.2 L 314.1 -50.5 L 307.9 -18.1 L 307.9 -18.1 Q 306.8 -13.4 306.8 -11.7 L 306.8 -11.7 L 306.8 -11.7 Q 306.8 -8.1 309.5 -7.9 Z M 340.8 -15.2 L 340.8 -15.2 L 340.8 -15.2 Q 342.4 -14.2 342.4 -11.8 L 342.4 -11.8 L 342.4 -11.8 Q 342.4 -9.4 341.2 -7.8 L 341.2 -7.8 L 341.2 -7.8 Q 340 -6.3 338 -5.3 L 338 -5.3 L 338 -5.3 Q 333.9 -3.1 329.5 -3.1 L 329.5 -3.1 L 329.5 -3.1 Q 325.1 -3.1 322.5 -4.1 L 322.5 -4.1 L 322.5 -4.1 Q 319.9 -5.1 318.2 -6.9 L 318.2 -6.9 L 318.2 -6.9 Q 314.8 -10.2 314.8 -16.5 L 314.8 -16.5 L 314.8 -16.5 Q 314.8 -26.1 320 -32 L 320 -32 L 320 -32 Q 325.7 -38.3 335.4 -38.3 L 335.4 -38.3 L 335.4 -38.3 Q 341.5 -38.3 344.5 -35.8 L 344.5 -35.8 L 344.5 -35.8 Q 346.8 -33.9 346.8 -30.7 L 346.8 -30.7 L 346.8 -30.7 Q 346.8 -19.5 327.3 -19.5 L 327.3 -19.5 L 327.3 -19.5 Q 327.1 -17.8 327.1 -16.4 L 327.1 -16.4 L 327.1 -16.4 Q 327.1 -13.4 328.4 -12.3 L 328.4 -12.3 L 328.4 -12.3 Q 329.7 -11.2 332.1 -11.2 L 332.1 -11.2 L 332.1 -11.2 Q 334.6 -11.2 337.1 -12.3 L 337.1 -12.3 L 337.1 -12.3 Q 339.7 -13.4 340.8 -15.2 Z M 327.8 -22.2 L 327.8 -22.2 L 327.8 -22.2 Q 332.3 -22.2 334.9 -25 L 334.9 -25 L 334.9 -25 Q 337.6 -27.7 337.6 -32 L 337.6 -32 L 337.6 -32 Q 337.6 -33.5 337 -34.3 L 337 -34.3 L 337 -34.3 Q 336.5 -35.1 335.4 -35.1 L 335.4 -35.1 L 335.4 -35.1 Q 334.3 -35.1 333.4 -34.7 L 333.4 -34.7 L 333.4 -34.7 Q 332.4 -34.2 331.5 -32.8 L 331.5 -32.8 L 331.5 -32.8 Q 329.1 -29.6 327.8 -22.2 Z M 369 -22.4 L 369 -22.4 L 369 -22.4 Q 371.3 -26.5 371.3 -30.7 L 371.3 -30.7 L 371.3 -30.7 Q 371.3 -33.4 369.3 -33.4 L 369.3 -33.4 L 369.3 -33.4 Q 367.8 -33.4 366.2 -30.8 L 366.2 -30.8 L 366.2 -30.8 Q 364.5 -28.2 364 -24.8 L 364 -24.8 L 360.7 -4.4 L 347.4 -3.1 L 353.9 -37.1 L 364.5 -38.3 L 363.4 -31.9 L 363.4 -31.9 Q 366.5 -38.3 373.5 -38.3 L 373.5 -38.3 L 373.5 -38.3 Q 377.2 -38.3 379.3 -36.4 L 379.3 -36.4 L 379.3 -36.4 Q 381.3 -34.5 381.3 -30.6 L 381.3 -30.6 L 381.3 -30.6 Q 381.3 -26.6 378.7 -24.1 L 378.7 -24.1 L 378.7 -24.1 Q 376.1 -21.6 371.7 -21.6 L 371.7 -21.6 L 371.7 -21.6 Q 369.8 -21.6 369 -22.4 Z M 402.6 -11.7 L 402.6 -11.7 L 402.6 -11.7 Q 399.3 -8.2 393.2 -8.2 L 393.2 -8.2 L 393.2 -8.2 Q 385.6 -8.2 384 -13.8 L 384 -13.8 L 384 -13.8 Q 383.5 -15.4 383.5 -17.3 L 383.5 -17.3 L 383.5 -17.3 Q 383.5 -19.1 383.9 -21.1 L 383.9 -21.1 L 386.9 -37.1 L 399.9 -38.3 L 396.4 -19.7 L 396.4 -19.7 Q 396.2 -18.9 396.1 -18 L 396.1 -18 L 396.1 -18 Q 395.9 -17.1 395.9 -16.2 L 395.9 -16.2 L 395.9 -16.2 Q 395.9 -15.2 396.2 -14.6 L 396.2 -14.6 L 396.2 -14.6 Q 396.5 -14 397 -13.6 L 397 -13.6 L 397 -13.6 Q 397.7 -13.1 399.1 -13.1 L 399.1 -13.1 L 399.1 -13.1 Q 400.5 -13.1 401.7 -14.8 L 401.7 -14.8 L 401.7 -14.8 Q 402.8 -16.5 403.4 -19.3 L 403.4 -19.3 L 406.9 -37.1 L 419.5 -38.3 L 414.7 -13.2 L 414.7 -13.2 Q 412.4 -0.9 407.5 4 L 407.5 4 L 407.5 4 Q 405 6.5 401.8 7.4 L 401.8 7.4 L 401.8 7.4 Q 398.6 8.4 394.4 8.4 L 394.4 8.4 L 394.4 8.4 Q 387.7 8.4 383.8 6.3 L 383.8 6.3 L 383.8 6.3 Q 380 4.2 380 0.7 L 380 0.7 L 380 0.7 Q 380 -1.9 382 -3.4 L 382 -3.4 L 382 -3.4 Q 384 -4.9 387 -4.9 L 387 -4.9 L 387 -4.9 Q 389.7 -4.9 391.8 -3.8 L 391.8 -3.8 L 391.8 -3.8 Q 393 -3.1 393.6 -2.2 L 393.6 -2.2 L 393.6 -2.2 Q 392.1 -0.9 392.1 1.2 L 392.1 1.2 L 392.1 1.2 Q 392.1 4 394.6 4 L 394.6 4 L 394.6 4 Q 398.9 4 401.3 -5.7 L 401.3 -5.7 L 401.3 -5.7 Q 402 -8.6 402.6 -11.7 Z" fill="url(#editing-shiny-gradient2)"></path></g></g><style>text {
  font-size: 64px;
  font-family: Arial Black;
  dominant-baseline: central;
  text-anchor: middle;
}</style></svg>